<svg xmlns="http://www.w3.org/2000/svg" width="20" height="20" viewBox="0 0 20 20">
  <g fill="#35A0DA" transform="translate(1 2.5)">
    <path d="M1.73571429,0.685714286 L8.7,6.47142857 L8.72142857,6.49285714 C8.89285714,6.64285714 9.12857143,6.64285714 9.27857143,6.49285714 L9.3,6.47142857 L16.2642857,0.685714286 C16.2857143,0.664285714 16.3071429,0.664285714 16.3285714,0.642857143 C15.7928571,0.321428571 15.1714286,0.107142857 14.5071429,0.107142857 L3.47142857,0.107142857 C2.80714286,0.107142857 2.18571429,0.3 1.65,0.642857143 C1.67142857,0.642857143 1.71428571,0.664285714 1.73571429,0.685714286 Z"/>
    <path d="M17.5071429,1.84285714 C17.4642857,1.90714286 17.4214286,1.95 17.3571429,1.99285714 L10.4142857,7.77857143 C10.0071429,8.12142857 9.51428571,8.31428571 9,8.31428571 C8.48571429,8.31428571 7.99285714,8.14285714 7.58571429,7.77857143 L0.642857143,1.99285714 C0.578571429,1.95 0.535714286,1.88571429 0.492857143,1.84285714 C0.214285714,2.33571429 0.0428571429,2.91428571 0.0428571429,3.53571429 L0.0428571429,10.6071429 C0.0428571429,12.4928571 1.58571429,14.0357143 3.47142857,14.0357143 L14.5285714,14.0357143 C16.4142857,14.0357143 17.9571429,12.4928571 17.9571429,10.6071429 L17.9571429,3.53571429 C17.9571429,2.91428571 17.7857143,2.33571429 17.5071429,1.84285714 Z"/>
  </g>
</svg>
